<svg width="136" height="29" viewBox="0 0 136 29" fill="none" xmlns="http://www.w3.org/2000/svg">
<g clip-path="url(#clip0_35_2)">
<path d="M20.3727 7.97275L20.3913 18.5546C20.3913 19.4675 20.1864 20.4548 19.7579 21.554C19.348 22.6346 18.696 23.6778 17.839 24.6652C16.982 25.634 15.8829 26.4537 14.5601 27.0685C13.2188 27.7019 11.6538 28.0186 9.82813 28.0373C8.22595 28.0186 6.69829 27.5715 5.26378 26.6959C3.82927 25.8203 2.67421 24.6652 1.76134 23.2121C0.848469 21.7403 0.382719 20.1195 0.364089 18.3497L0.345459 7.97275H4.01557C4.01557 7.97275 4.0342 8.28946 4.0342 8.92288C4.05283 9.5563 4.05283 10.3388 4.07146 11.2516C4.07146 12.1831 4.07146 13.1146 4.07146 14.0648C4.07146 14.9963 4.05283 15.816 4.0342 16.4867C3.99694 18.2938 4.29502 19.7655 4.90981 20.9392C5.5246 22.0943 6.30706 22.9513 7.29445 23.5102C8.26321 24.0691 9.26923 24.3299 10.3311 24.3113C11.4117 24.2926 12.4549 24.0318 13.461 23.5102C14.467 23.0072 15.2681 22.1874 15.9015 21.0883C16.5163 19.9891 16.7957 18.5546 16.7026 16.7847V7.97275H20.3727ZM39.8597 18.6291C41.1265 19.5233 42.1325 20.6784 42.8591 22.1502C43.6043 23.6033 43.9583 25.5595 43.9396 28H40.195C40.2323 26.7518 40.0087 25.5595 39.5616 24.423C39.0958 23.268 38.4065 22.3178 37.475 21.5726C36.5622 20.8461 35.3885 20.4548 33.9912 20.4362C32.2773 20.4548 30.8055 21.1255 29.6318 22.411C28.4395 23.7151 27.8247 25.5595 27.7874 28H24.0614C24.0242 26.2301 24.3968 24.4789 25.1233 22.7277C25.8499 20.9765 26.8559 19.6165 28.1414 18.6291C27.2658 18.0143 26.4833 17.1573 25.7568 16.0582C25.0302 14.959 24.5272 13.7108 24.2105 12.3135C23.8938 10.9163 23.931 9.46315 24.3036 7.95412H28.2159C27.8806 9.46315 27.9365 10.8977 28.4208 12.2576C28.8866 13.599 29.6318 14.6982 30.6378 15.5365C31.6252 16.3935 32.7616 16.822 33.9912 16.8406C35.1463 16.7847 36.2454 16.319 37.2887 15.4247C38.332 14.5305 39.1331 13.4127 39.6547 12.0527C40.1764 10.7114 40.2136 9.35137 39.7665 7.95412H43.6788C44.1446 9.31411 44.2191 10.6927 43.921 12.09C43.6043 13.5059 43.064 14.7913 42.3002 15.9464C41.5364 17.1014 40.7167 18.0143 39.8597 18.6291ZM51.4662 9.44452C52.6398 8.77384 53.9812 8.34535 55.5275 8.15905C57.0738 7.97275 58.7319 7.8796 60.5017 7.8796V11.4566C58.3779 11.4379 56.6639 11.5497 55.3412 11.7733C54.0371 11.9968 53.0683 12.5185 52.4535 13.3196C51.8201 14.1393 51.5034 15.4061 51.4848 17.1387L51.4475 24.4044V28.0373H47.7402V27.9441V17.9025C47.7402 17.5858 47.7402 17.2877 47.7588 17.0083L47.7774 7.97275H51.4662V9.44452ZM63.9855 27.9814L64.0228 7.93549H67.7115L67.6929 28L63.9855 27.9814ZM65.8485 4.1536C65.3083 4.1536 64.8425 3.98593 64.4513 3.61333C64.06 3.25936 63.8737 2.83087 63.8737 2.32786C63.8737 1.80622 64.06 1.37773 64.4513 1.02376C64.8425 0.669791 65.3083 0.48349 65.8485 0.48349C66.3888 0.48349 66.8545 0.669791 67.2458 1.02376C67.637 1.37773 67.8233 1.80622 67.8233 2.32786C67.8233 2.83087 67.637 3.25936 67.2458 3.61333C66.8545 3.98593 66.3888 4.1536 65.8485 4.1536ZM80.678 16.1327C81.6654 16.3749 82.69 16.6543 83.7147 16.971C84.7393 17.3064 85.6708 17.6976 86.5465 18.1634C87.4034 18.6477 88.1114 19.2439 88.633 19.9332C89.1547 20.6411 89.3968 21.5168 89.3782 22.5414C89.341 23.4543 89.0429 24.3299 88.4467 25.1869C87.8692 26.0438 86.9377 26.7332 85.6522 27.2548C84.3667 27.7764 82.6714 28.0373 80.5476 28C78.8709 27.9627 77.455 27.7392 76.3372 27.3293C75.2008 26.9381 74.2879 26.4351 73.58 25.8762C72.8907 25.2986 72.3504 24.7397 71.9778 24.1622C71.6238 23.5847 71.363 23.1003 71.2326 22.7091L71.0463 22.2061L74.9772 21.2746L75.1635 21.7217C75.2939 22.1315 75.5548 22.5228 75.9274 22.914C76.3186 23.3239 76.8961 23.6592 77.6972 23.9387C78.4983 24.2181 79.6161 24.3671 81.0506 24.4044H81.0879C81.4418 24.4044 81.9262 24.3671 82.5596 24.274C83.2117 24.1808 83.7892 24.0132 84.3295 23.7896C84.8698 23.5847 85.1678 23.2866 85.2237 22.9326C85.261 22.1129 84.7952 21.4795 83.8078 21.0137C82.8391 20.548 81.4605 20.1009 79.672 19.6724C78.7032 19.4116 77.8462 19.1507 77.1383 18.8713C76.449 18.5732 75.6852 18.2192 74.9027 17.7721C73.0397 16.7475 72.1455 15.2943 72.2014 13.4686C72.2572 11.8292 73.0397 10.4878 74.5487 9.42589C76.2068 8.36398 78.1443 7.86097 80.3799 7.89823C84.9256 8.01001 87.8506 9.79849 89.136 13.2637L89.3223 13.7853L85.3914 14.7168L85.2051 14.2511C85.0747 13.8226 84.8325 13.4127 84.4599 13.0028C84.1059 12.593 83.4911 12.239 82.6342 11.9596C81.7772 11.6615 80.9388 11.5124 80.1191 11.4938C80.0073 11.4752 79.8955 11.4752 79.7838 11.4752C78.6101 11.4938 77.7531 11.6987 77.1942 12.09C76.6353 12.4998 76.3186 12.9842 76.2813 13.5617C76.3186 14.1765 76.7098 14.6609 77.4736 15.0521C78.2375 15.4434 79.2994 15.7973 80.678 16.1327ZM111.064 13.9716C111.548 15.0708 111.827 16.2631 111.902 17.5299V28H108.232V17.6603H108.213C108.101 16.2445 107.617 15.0149 106.741 13.9716C106.182 13.2823 105.549 12.7234 104.86 12.3135C104.17 11.9037 103.351 11.6987 102.363 11.6987C101.395 11.6987 100.556 11.9037 99.8669 12.3135C99.1776 12.7234 98.5628 13.2823 97.9853 13.9716C97.1283 15.0149 96.6253 16.2445 96.5321 17.6603L96.4949 28H92.7875V0.558011H96.4762L96.5135 10.2642C97.3705 9.5563 98.2461 8.9974 99.1776 8.60617C100.109 8.21494 101.171 8.01001 102.363 8.01001C103.723 8.01001 104.972 8.27083 106.089 8.77384C107.207 9.27685 108.176 9.98479 109.014 10.879C109.853 11.7733 110.542 12.7979 111.064 13.9716ZM135.283 7.97275L135.301 18.5546C135.301 19.4675 135.096 20.4548 134.668 21.554C134.258 22.6346 133.606 23.6778 132.749 24.6652C131.892 25.634 130.793 26.4537 129.47 27.0685C128.129 27.7019 126.564 28.0186 124.738 28.0373C123.136 28.0186 121.608 27.5715 120.174 26.6959C118.739 25.8203 117.584 24.6652 116.671 23.2121C115.758 21.7403 115.293 20.1195 115.274 18.3497L115.255 7.97275H118.925C118.925 7.97275 118.944 8.28946 118.944 8.92288C118.963 9.5563 118.963 10.3388 118.981 11.2516C118.981 12.1831 118.981 13.1146 118.981 14.0648C118.981 14.9963 118.963 15.816 118.944 16.4867C118.907 18.2938 119.205 19.7655 119.82 20.9392C120.434 22.0943 121.217 22.9513 122.204 23.5102C123.173 24.0691 124.179 24.3299 125.241 24.3113C126.322 24.2926 127.365 24.0318 128.371 23.5102C129.377 23.0072 130.178 22.1874 130.811 21.0883C131.426 19.9891 131.706 18.5546 131.612 16.7847V7.97275H135.283Z" fill="white"/>
</g>
<defs>
<clipPath id="clip0_35_2">
<rect width="136" height="29" fill="white"/>
</clipPath>
</defs>
</svg>
